<svg height='100px' width='100px'  fill="#000000" xmlns="http://www.w3.org/2000/svg" xmlns:xlink="http://www.w3.org/1999/xlink" version="1.1" x="0px" y="0px" viewBox="0 0 32 32" style="enable-background:new 0 0 32 32;" xml:space="preserve"><path d="M3.354,17.381l22.613,0.034c-0.755,0.736-1.512,1.48-2.257,2.218c-1.398,1.383-2.844,2.814-4.211,4.094  c-0.403,0.377-0.424,1.01-0.046,1.414c0.197,0.21,0.463,0.316,0.73,0.316c0.245,0,0.491-0.089,0.684-0.27  c1.387-1.299,2.842-2.739,4.25-4.132c1.398-1.383,2.844-2.814,4.211-4.094c0.369-0.346,0.422-0.912,0.124-1.32  c-2.07-2.833-5.431-5.925-8.131-8.409l-0.46-0.424c-0.407-0.375-1.04-0.349-1.413,0.058c-0.375,0.406-0.349,1.039,0.058,1.413  l0.461,0.425c2.183,2.009,4.801,4.422,6.748,6.713L3.357,15.381c0,0-0.001,0-0.001,0c-0.552,0-0.999,0.447-1,0.999  C2.355,16.932,2.802,17.38,3.354,17.381z"></path></svg>