<?xml version="1.0" encoding="utf-8"?>
<!-- Generator: Adobe Illustrator 25.2.1, SVG Export Plug-In . SVG Version: 6.00 Build 0)  -->
<svg version="1.1" xmlns="http://www.w3.org/2000/svg" xmlns:xlink="http://www.w3.org/1999/xlink" x="0px" y="0px"
	 viewBox="0 0 100 100" style="enable-background:new 0 0 100 100;" xml:space="preserve">
<style type="text/css">
	.st0{fill:#0E71EB;}
	.st1{display:none;}
	.st2{display:inline;}
	.st3{fill:#FFFFFF;}
</style>
<g id="Layer_2">
	<path class="st0" d="M83.7,89.3H16.4c-3.1,0-5.7-2.6-5.7-5.7V16.2c0-3.1,2.6-5.7,5.7-5.7h67.4c3.1,0,5.7,2.6,5.7,5.7v67.4
		C89.4,86.7,86.9,89.3,83.7,89.3z"/>
</g>
<g id="Layer_1" class="st1">
	<g>
		<rect x="-694.2" y="-397.2" class="st2" width="1345.3" height="1337.6"/>
	</g>
	<g class="st2">
		<g>
			<path class="st3" d="M53.1,27.7H47c-2.7,0-4.9,2.2-4.9,4.9v2.4h-2.7c-5.2,0-9.7,3.7-10.8,8.7h-2.1c-2.1,0-3.7,1.6-3.7,3.7v10.5
				c0,2.1,1.6,3.7,3.7,3.7h1.7v7.3h43.5v-7.3h1.7c2.1,0,3.7-1.6,3.7-3.7V47.3c0-2.1-1.6-3.7-3.7-3.7h-2c-1.1-5-5.5-8.7-10.8-8.7H58
				v-2.4C58,29.8,55.7,27.7,53.1,27.7z M60.6,38.3c4,0,7.4,3.2,7.8,7.2l0.1,1.5h4.9c0.2,0,0.4,0.2,0.4,0.4V58c0,0.2-0.2,0.4-0.4,0.4
				h-5v7.3H31.5v-7.3h-4.9c-0.2,0-0.4-0.2-0.4-0.4V47.4c0-0.2,0.2-0.4,0.4-0.4h4.9l0.1-1.5c0.3-4,3.7-7.2,7.8-7.2h6v-5.6
				c0-0.9,0.8-1.6,1.6-1.6h6.1c0.9,0,1.6,0.8,1.6,1.6v5.6H60.6L60.6,38.3z"/>
			<path class="st3" d="M41.3,43.3c-3.7,0-6.7,3.2-6.7,7c0,3.8,3,7,6.7,7s6.7-3.2,6.7-7C48,46.5,45,43.3,41.3,43.3z M41.3,53.8
				c-2,0-3.5-1.6-3.5-3.7c0-2.1,1.5-3.7,3.5-3.7c2,0,3.5,1.6,3.5,3.7C44.7,52.2,43.1,53.8,41.3,53.8z"/>
			<path class="st3" d="M52,50.3c0,3.8,3,7,6.7,7c3.7,0,6.7-3.2,6.7-7c0-3.8-3-7-6.7-7C55.1,43.3,52,46.3,52,50.3z M58.7,46.6
				c2,0,3.5,1.6,3.5,3.7S60.7,54,58.7,54s-3.5-1.6-3.5-3.7S56.9,46.6,58.7,46.6z"/>
			<rect x="47.1" y="57.9" class="st3" width="5.8" height="3.3"/>
		</g>
	</g>
</g>
<g id="Layer_3">
	<path class="st3" d="M62.4,61.6c0.9-0.9,2.3-0.9,3.1,0c0.9,0.9,0.9,2.3,0,3.1c-8.6,8.6-22.4,8.6-31,0c-0.9-0.9-0.9-2.3,0-3.1
		c0.9-0.9,2.3-0.9,3.1,0C44.5,68.4,55.5,68.4,62.4,61.6z M34.7,47c-4.9,0-8.8-4-8.8-8.8s3.9-8.8,8.8-8.8s8.8,4,8.8,8.8
		S39.5,47,34.7,47z M34.7,42.6c2.4,0,4.4-2,4.4-4.4c0-2.4-2-4.4-4.4-4.4s-4.4,2-4.4,4.4S32.2,42.6,34.7,42.6z M65.3,47
		c-4.8,0-8.8-3.9-8.8-8.8s4-8.8,8.8-8.8s8.8,4,8.8,8.8S70.2,47,65.3,47z M65.3,42.6c2.4,0,4.4-2,4.4-4.4c0-2.4-2-4.4-4.4-4.4
		s-4.4,2-4.4,4.4C61,40.6,62.9,42.6,65.3,42.6z"/>
</g>
</svg>
